<?xml version="1.0" encoding="UTF-8"?>
<svg version="1.1" xmlns="http://www.w3.org/2000/svg" width="22" height="22">
<path d="M0 0 C7.26 0 14.52 0 22 0 C22 7.26 22 14.52 22 22 C14.74 22 7.48 22 0 22 C0 14.74 0 7.48 0 0 Z " fill="#55208F" transform="translate(0,0)"/>
<path d="M0 0 C0.5775 0.20625 1.155 0.4125 1.75 0.625 C1.42 1.615 1.09 2.605 0.75 3.625 C-1.23 3.955 -3.21 4.285 -5.25 4.625 C-5.25 7.925 -5.25 11.225 -5.25 14.625 C-5.91 14.625 -6.57 14.625 -7.25 14.625 C-7.25 11.325 -7.25 8.025 -7.25 4.625 C-8.384375 4.50125 -9.51875 4.3775 -10.6875 4.25 C-11.863125 4.04375 -13.03875 3.8375 -14.25 3.625 C-14.58 2.965 -14.91 2.305 -15.25 1.625 C-9.625 0.5 -9.625 0.5 -6.25 1.625 C-5.610625 1.295 -4.97125 0.965 -4.3125 0.625 C-2.25 -0.375 -2.25 -0.375 0 0 Z " fill="#99EBA0" transform="translate(17.25,3.375)"/>
<path d="M0 0 C0 0.99 0 1.98 0 3 C-3 5 -3 5 -7 5 C-7 8.3 -7 11.6 -7 15 C-7.99 15 -8.98 15 -10 15 C-9.67 11.04 -9.34 7.08 -9 3 C-2.25 0 -2.25 0 0 0 Z " fill="#44198C" transform="translate(21,5)"/>
</svg>
